# xmcd
#
# Track frame offsets:
#	150
#	15417
#	34182
#	51375
#
# Disc length: 918 seconds
#
# Revision: 0
# Processed by: cddbd v1.5.1PL0 Copyright (c) Steve Scherf et al.
# Submitted via: dBpowerAMP V4.0
#
DISCID=2a039404
DTITLE=Mary-Chapin Carpenter - Single Release
DYEAR=1900
DGENRE=Country
TTITLE0=Passionate Kisses
TTITLE1=Downtown Train
TTITLE2=The Bug
TTITLE3=Quittin' Time
EXTD=
EXTT0=
EXTT1=
EXTT2=
EXTT3=
PLAYORDER=
